PathFileType	4	(X/Y/Z)	50_2_87_p0_0-144.trc
DataRate	CameraRate	NumFrames	NumMarkers	Units	OrigDataRate	OrigDataStartFrame	OrigNumFrames
40.0	40.0	6	27	m	40.0	18	145
Frame#	Time	RHip			RKnee			RAnkle			RBigToe			RSmallToe			RHeel			LHip			LKnee			LAnkle			LBigToe			LSmallToe			LHeel			Neck			Head			Nose			RShoulder			RElbow			RWrist			RThumb			RIndex			RPinky			LShoulder			LElbow			LWrist			LThumb			LIndex			LPinky			
		X1	Y1	Z1	X2	Y2	Z2	X3	Y3	Z3	X4	Y4	Z4	X5	Y5	Z5	X6	Y6	Z6	X7	Y7	Z7	X8	Y8	Z8	X9	Y9	Z9	X10	Y10	Z10	X11	Y11	Z11	X12	Y12	Z12	X13	Y13	Z13	X14	Y14	Z14	X15	Y15	Z15	X16	Y16	Z16	X17	Y17	Z17	X18	Y18	Z18	X19	Y19	Z19	X20	Y20	Z20	X21	Y21	Z21	X22	Y22	Z22	X23	Y23	Z23	X24	Y24	Z24	X25	Y25	Z25	X26	Y26	Z26	X27	Y27	Z27	
18	0.45	0.31808043960267507	0.7552610881700957	0.543416290173352	0.3147203078011645	0.892521830139435	0.9403497229936036	0.3151085232888359	0.9863614969103317	1.3482373575221203	0.25779203371902276	0.858062127255849	1.4175550263840238	0.32329498390986583	0.8394221175345064	1.4113833555803357	0.2862283825379819	1.0676919232374336	1.385930623121589	0.11179105072325447	0.7477484880444951	0.531632962538462	0.10867720819154549	0.8939482959723544	0.9319164103832951	0.08823186719689931	1.0199509431857006	1.3398255061153548	0.09753968530230209	0.8593866833436069	1.3961878763972657	0.03445740573089698	0.8951603103754462	1.3902127561318838	0.10503152251099823	1.0847805325981437	1.3995422429491564	0.20097430175184774	0.5912426759862668	-0.014760945695131821	0.20905709464680405	0.5059299101484465	-0.23339143007947727	0.19639626473718003	0.44891651422258777	-0.09698018935238645	0.3397189697171566	0.5591131657765936	0.08635951415582165	0.40699897955308395	0.6077146463410299	0.34932954163471486	0.2876775347334487	0.565443458055986	0.5758679746605591	0.17543191857337134	0.6022965229912595	0.6363805768057202	0.17464149428848202	0.6055485560555899	0.6645237563603291	0.21184754329936775	0.6023124658317768	0.6870693666912696	0.05261701866080407	0.6222234809184458	0.07306197879551249	-0.05971147734970824	0.6605497289335128	0.31755537147291685	0.08165740491849335	0.5131136442891477	0.34626966317757385	0.16482267473819584	0.4581651399987323	0.2903317779458425	0.19544101180028112	0.4692431411190983	0.31973654319414485	0.19626947551628404	0.5128825970990187	0.40090816369659515
19	0.475	0.3125176324604604	0.7505628092250851	0.5312727635344864	0.31867839601993664	0.8725155674707394	0.9313377711756007	0.31605352583583884	0.9848176583233773	1.3436072012399878	0.2577932125326857	0.8580842976360323	1.4174768034360739	0.3262653520529218	0.8218493115792305	1.405736563592182	0.29120640465943765	1.068746419097616	1.3860887291945139	0.11271062880592458	0.7460084300230204	0.5195961963541786	0.11060160312791364	0.8900650269935932	0.9233139281091629	0.08924311904308722	1.0234868693768848	1.3453473188895417	0.09422006378519995	0.8441233883925113	1.3913361065963128	0.03446402820889475	0.8950625857111735	1.3902175428642998	0.10497518656558405	1.0839709670096034	1.3995258637992092	0.20051987934098028	0.5918237159313516	-0.01467370531720007	0.20606810773457665	0.5193428252245142	-0.2361672916222577	0.1921169019154103	0.43729266555903523	-0.094972460889331	0.3395209676720218	0.5585176503441728	0.07969399700765965	0.4023895051605805	0.5948481814191549	0.3496231243616135	0.29172330876714075	0.5657389222285751	0.5762039260184223	0.17143443670471759	0.5903890934042322	0.6445002515439237	0.1811735963972302	0.5933327348612467	0.6737357585881887	0.22522911298053067	0.6021639985070526	0.6901274886306961	0.05195539444551451	0.6211016811458847	0.07254982399944705	-0.06240880173018733	0.6486375767882046	0.321936487911311	0.08013250192483719	0.5045517201047816	0.3245300904449526	0.15862628026931294	0.4255072838001681	0.2572007166967284	0.19812593319028246	0.4794732980122209	0.27806672639510566	0.20124884747817348	0.5087771907874212	0.3570791047942393
20	0.5	0.3093861747892899	0.762642444912908	0.5129151999015324	0.3160770260863487	0.8885336089849853	0.9299157958313586	0.316016127468383	0.984842206951501	1.343626295393812	0.25783116393487904	0.8580318698429968	1.4175118901432	0.32636636660026264	0.8222491603176247	1.4058100310320576	0.28256359315718954	1.0875710732915669	1.3917362341828778	0.10771715338959303	0.7592080606456941	0.5074112192198456	0.10430159631880884	0.8903111887955101	0.922944608011652	0.0883245950942466	1.0200335831497982	1.3398154491050662	0.102664859130182	0.8613045901771371	1.396795747642378	0.03462427267998409	0.8951312517614645	1.3902387114570594	0.1052345887325403	1.0848308310373234	1.3994840269126412	0.19667896678894384	0.5914250609149919	-0.01453224179361223	0.20100151321983073	0.5199305363064768	-0.2357296873501245	0.1805914053431148	0.44623893060636755	-0.09652704519917965	0.33542158382427983	0.5576148418334814	0.07960541810397216	0.40445100783199667	0.5795222506951763	0.3501725713432329	0.3016055546526833	0.5665441083562506	0.5768653170124798	0.18707633658329506	0.5893975730633322	0.6544420500322872	0.19010531172825224	0.5935780100616209	0.6779184869937013	0.24648054668100716	0.5959063906194364	0.6889780875748247	0.055529847750888636	0.6341370177756176	0.06787089561942769	-0.07292484705858968	0.6541005266110637	0.30977802946500044	0.07446467488077547	0.4978946705591414	0.2930749783718997	0.15943548957208778	0.43934530981351705	0.2151768120748194	0.18315466024107474	0.47861001099046646	0.25232850709009247	0.19176352387067871	0.5149096320247913	0.32321810577921384
21	0.525	0.30722764588061613	0.7610609702659076	0.5041370182375284	0.31597261092722134	0.8938030770392589	0.9403036500026237	0.31598583932496166	0.9848691450706343	1.343718812651421	0.25779148821548886	0.8582796092172014	1.4175499091493697	0.32625340408014464	0.8223978389191575	1.405939458621247	0.2825110951872761	1.0876331227137561	1.3918696228722354	0.11198966556086785	0.7422020816762014	0.5023777944256134	0.1043521729955997	0.8908607325134338	0.9232546032703188	0.08939208708403834	1.0237099647548156	1.3455275587520028	0.10258372253266332	0.8613593513806723	1.3967862856730564	0.03482931028189003	0.8959893127084599	1.3904321861096045	0.10538381841689337	1.0848159771140213	1.3995672351546131	0.20042834134076296	0.5915783529981737	-0.018180318680028052	0.19718912935776894	0.507501456445222	-0.23290603541292432	0.17275923024516077	0.43332769246308545	-0.094393696003934	0.33561840428418266	0.5572285067167263	0.0792996805647351	0.4047076082306861	0.5793718085990142	0.3497005824013658	0.3092885544955144	0.5537063947928617	0.5760441430569442	0.195386614830847	0.5760365454010237	0.6566064318626792	0.20341241233095705	0.5831716845148881	0.6808267619731315	0.2565558841377792	0.5799642543564839	0.6868025105696867	0.05560286774030507	0.6344590751758832	0.06793173062069004	-0.08615934816022121	0.65116223725164	0.30934405249565455	0.07149484715207616	0.5053735453439153	0.27412832076890686	0.1556344130142689	0.45995554253798665	0.19871723939910266	0.17620928098736266	0.4666378216294542	0.21384088220225259	0.17437532332391273	0.5001932163544985	0.2895143242317701
22	0.55	0.3089864892551233	0.7583298220272329	0.47774695530763084	0.3167581355281496	0.8878167949791125	0.9253845029772158	0.31135772337676854	0.9837052050483116	1.3433669066117269	0.2577156951610683	0.8581408123582654	1.4175614507732155	0.32298576708514953	0.8389848314989801	1.4114630962866774	0.2825102822450971	1.0876725632631496	1.3918233441294845	0.10887504220735701	0.7532681429587136	0.48280417919108204	0.10494579847195037	0.8916868971300258	0.9229884360723742	0.08938081907973595	1.023854988479299	1.345334474902708	0.10258132367824138	0.8615892160199204	1.396836862098783	0.034656769480621304	0.8964520783993283	1.3905637538186377	0.10556245759329545	1.08556724781458	1.3994380570756413	0.1968822664981299	0.6066861883170731	-0.02014901110784862	0.1924150845379607	0.5056467435533563	-0.23608645318624066	0.1647907478890214	0.42071212948358877	-0.09208777629652204	0.3356032184227609	0.5573789492584131	0.07921444572573175	0.41218467654647845	0.5776688737619801	0.3494556131376272	0.31084422565599035	0.5563145956165804	0.5800609149790632	0.20485057040684268	0.5741426161537103	0.665182960964009	0.21697611861916047	0.5819011037943096	0.6874523649619091	0.2675686772458726	0.5633641136759745	0.6827106581127704	0.05540785864979506	0.6350997386472513	0.06732995240648464	-0.09075409743217487	0.6471966885493456	0.3054329981475747	0.060207607953846616	0.4965526521608266	0.24616716911018063	0.14318443585954777	0.4664360154297573	0.16468843099831734	0.16881543964813434	0.47070083089157255	0.1753686193945563	0.17507993190380175	0.49190041759121533	0.2557629777657175
23	0.575	0.3116117407456953	0.7618005166770274	0.47309897404370416	0.31577112189353423	0.8943281494505791	0.9361735732278581	0.31503094169999224	0.9863805187589648	1.34838538999048	0.253521480346118	0.8433967457286279	1.412815679073981	0.322901978720936	0.8387170958446997	1.4114274900844008	0.2825467754538781	1.0878038875187381	1.391834200779262	0.11111065645535936	0.7509314544378188	0.4634911060808422	0.10483213595009513	0.8914137074514896	0.9230608994493819	0.08940373157391811	1.023820113016853	1.3454989005786433	0.09863065304040075	0.8790603251577236	1.402369034547052	0.03471903622259079	0.8965880418722738	1.3905992444178015	0.10571369642473465	1.0858098784292993	1.3994593228399252	0.19299297716905459	0.605381850374537	-0.01999231866568112	0.19246965947936504	0.5056286019532742	-0.23615447889065583	0.16100509877961602	0.4323022579051162	-0.09722555946814558	0.3315509962846905	0.5572936325006521	0.07938980509902918	0.4169978764479739	0.5904177390972737	0.3491774961750631	0.3148244624235885	0.5699191610885685	0.5845351906377771	0.2183188175374225	0.5778365725669137	0.6730364540185368	0.2222406017290253	0.5972144577275054	0.689805227684478	0.2756264088486864	0.5772105132963428	0.6881290019575939	0.05861379222329735	0.648462050541136	0.0657786000021029	-0.08535422585975369	0.6321211875205427	0.29868267577414315	0.062406625661622715	0.5166984732413576	0.22561463918515556	0.1441515855164977	0.4753075659065836	0.14860533968303585	0.16772933242395865	0.46442824789144815	0.15823871855096205	0.17302044152865723	0.48061714315504644	0.22679037390968237
